<svg width="24" height="24" viewBox="0 0 24 24" fill="none" xmlns="http://www.w3.org/2000/svg">
<path fill-rule="evenodd" clip-rule="evenodd" d="M10.8995 3.53711C6.82583 3.53711 3.52344 6.8395 3.52344 10.9132C3.52344 14.9869 6.82583 18.2893 10.8995 18.2893C14.9733 18.2893 18.2756 14.9869 18.2756 10.9132C18.2756 6.8395 14.9733 3.53711 10.8995 3.53711ZM2.02344 10.9132C2.02344 6.01108 5.9974 2.03711 10.8995 2.03711C15.8017 2.03711 19.7756 6.01108 19.7756 10.9132C19.7756 15.8153 15.8017 19.7893 10.8995 19.7893C5.9974 19.7893 2.02344 15.8153 2.02344 10.9132Z" fill="#5C5F61"/>
<path fill-rule="evenodd" clip-rule="evenodd" d="M19.227 20.6022L16.0809 17.4564C15.788 17.1635 15.7879 16.6887 16.0808 16.3957C16.3737 16.1028 16.8486 16.1028 17.1415 16.3957L20.2876 19.5415C20.5805 19.8344 20.5805 20.3093 20.2877 20.6022C19.9948 20.8951 19.5199 20.8951 19.227 20.6022Z" fill="#5C5F61"/>
</svg>
